<?xml version="1.0" encoding="UTF-8" ?>
<!DOCTYPE svg PUBLIC "-//W3C//DTD SVG 1.1//EN" "http://www.w3.org/Graphics/SVG/1.1/DTD/svg11.dtd">
<svg width="413pt" height="413pt" viewBox="0 0 413 413" version="1.1" xmlns="http://www.w3.org/2000/svg">
<g id="#ffffffff">
</g>
<g id="#eedb13ff">
<path fill="#eedb13" opacity="1.00" d=" M 162.47 146.65 C 182.14 141.02 203.70 140.86 223.00 148.00 C 241.11 154.74 256.68 167.56 267.52 183.46 C 279.50 172.15 295.26 164.13 311.97 163.98 C 329.18 163.69 345.44 173.22 355.74 186.64 C 354.28 187.91 352.62 188.92 351.09 190.09 C 342.11 178.83 328.73 170.28 314.05 169.75 C 295.61 169.32 278.05 179.31 266.58 193.34 C 257.45 176.47 242.47 162.83 224.95 155.07 C 205.65 146.56 183.39 146.52 163.35 152.44 C 142.71 158.78 124.10 173.70 115.73 193.89 C 107.38 182.40 94.56 173.12 79.97 172.52 C 66.89 172.30 55.08 180.18 47.13 190.05 C 45.54 188.97 43.97 187.86 42.45 186.67 C 50.08 176.71 61.28 169.00 73.86 167.19 C 89.03 165.02 104.10 172.40 114.39 183.22 C 125.04 165.52 142.68 152.39 162.47 146.65 Z" />
</g>
<g id="#000000ff">
<path fill="#000000" opacity="1.00" d=" M 72.34 190.54 C 79.69 188.30 88.13 189.90 94.09 194.78 C 101.38 200.44 104.66 210.59 102.24 219.47 C 100.11 227.44 93.50 235.02 85.07 236.02 C 81.04 236.00 77.01 235.99 72.99 236.02 C 61.87 234.26 54.12 222.12 55.42 211.17 C 56.13 201.68 63.20 193.11 72.34 190.54 M 73.37 192.67 C 64.98 194.91 58.50 202.66 57.70 211.30 C 56.21 223.05 66.14 234.47 77.91 234.96 C 90.97 236.04 102.90 223.13 100.45 210.19 C 98.94 197.85 85.28 188.83 73.37 192.67 Z" />
<path fill="#000000" opacity="1.00" d=" M 75.25 200.12 C 84.40 197.02 94.59 205.74 92.85 215.24 C 92.07 224.02 81.66 229.94 73.71 226.11 C 67.13 223.54 63.70 215.50 66.04 208.90 C 67.47 204.73 70.97 201.29 75.25 200.12 Z" />
<path fill="#000000" opacity="1.00" d=" M 293.49 206.01 C 297.38 206.40 302.27 204.62 305.10 208.20 C 306.63 211.32 307.12 215.77 304.36 218.36 C 301.30 220.78 297.08 219.39 293.50 219.74 C 293.49 215.17 293.50 210.59 293.49 206.01 M 298.07 209.13 C 297.95 211.61 297.99 214.10 298.02 216.58 C 298.71 216.48 300.10 216.28 300.79 216.18 C 302.76 213.79 302.12 208.47 298.07 209.13 Z" />
<path fill="#000000" opacity="1.00" d=" M 314.50 206.01 C 316.48 205.99 318.46 205.99 320.45 206.02 C 321.08 208.57 321.67 211.14 322.46 213.65 C 323.09 211.09 323.72 208.54 324.44 206.01 C 326.37 205.99 328.31 205.99 330.25 206.01 C 330.25 210.59 330.25 215.17 330.25 219.75 C 329.31 219.75 327.43 219.75 326.50 219.74 C 326.48 216.73 326.49 213.72 326.56 210.70 C 325.67 213.70 324.89 216.72 324.13 219.75 C 322.97 219.75 321.82 219.75 320.67 219.74 C 319.90 216.63 319.15 213.51 318.31 210.41 C 318.20 213.52 318.27 216.64 318.25 219.75 C 317.31 219.75 315.44 219.75 314.50 219.74 C 314.50 215.17 314.50 210.59 314.50 206.01 Z" />
<path fill="#000000" opacity="1.00" d=" M 338.00 206.00 C 342.42 206.00 346.83 205.99 351.25 206.01 C 351.25 206.88 351.25 208.63 351.24 209.50 C 349.83 209.50 348.42 209.50 347.01 209.50 C 346.98 212.92 347.02 216.33 346.99 219.75 C 345.49 219.76 343.99 219.75 342.50 219.74 C 342.49 216.33 342.50 212.92 342.49 209.51 C 341.00 209.50 339.50 209.50 338.01 209.51 C 338.00 208.34 337.99 207.17 338.00 206.00 Z" />
</g>
<g id="#9a1c1fff">
<path fill="#9a1c1f" opacity="1.00" d=" M 108.00 210.01 C 163.67 210.00 219.33 210.00 275.00 210.00 C 275.00 213.00 275.00 216.00 274.99 219.00 C 219.33 219.00 163.67 219.00 108.00 218.99 C 107.99 216.00 107.99 213.00 108.00 210.01 Z" />
</g>
<g id="#174897ff">
<path fill="#174897" opacity="1.00" d=" M 29.26 236.25 C 43.83 236.10 58.44 236.53 72.99 236.02 C 77.01 235.99 81.04 236.00 85.07 236.02 C 87.37 236.42 89.71 236.20 92.03 236.24 C 189.19 236.26 286.34 236.22 383.50 236.26 C 383.50 239.67 383.51 243.08 383.49 246.49 C 265.42 246.51 147.34 246.49 29.26 246.50 C 29.23 243.09 29.24 239.67 29.26 236.25 Z" />
</g>
</svg>
